<?xml version="1.0" encoding="UTF-8" standalone="no"?>
<!DOCTYPE svg PUBLIC "-//W3C//DTD SVG 1.1//EN" "http://www.w3.org/Graphics/SVG/1.1/DTD/svg11.dtd">
<svg width="100%" height="100%" viewBox="0 0 622 234" version="1.1" xmlns="http://www.w3.org/2000/svg" xmlns:xlink="http://www.w3.org/1999/xlink" xml:space="preserve" xmlns:serif="http://www.serif.com/" style="fill-rule:evenodd;clip-rule:evenodd;stroke-linejoin:round;stroke-miterlimit:2;">
    <g id="Corner-Post-Logo-1" serif:id="Corner-Post-Logo 1" transform="matrix(1.26466,0,0,1.26466,-57.015125,-354.643237)">
        <path d="M96.392,305.564C98.605,309.623 100.819,313.621 103.035,317.562C103.049,323.048 103.062,328.534 103.076,334.02C98.611,333.604 94.148,333.169 89.687,332.717C89.678,328.01 89.67,323.303 89.661,318.596C85.741,318.075 81.822,317.536 77.905,316.978C77.93,341.15 77.955,365.32 77.98,389.489C81.915,389.389 85.851,389.291 89.787,389.195C89.779,384.489 89.77,379.783 89.762,375.076C94.234,375.108 98.706,375.137 103.18,375.163C103.194,380.649 103.208,386.134 103.222,391.619C101.017,395.34 98.811,399.113 96.604,402.942C88.421,403.383 80.239,403.85 72.059,404.344C69.273,401.849 66.489,399.304 63.706,396.707L63.706,307.597C66.47,305.498 69.233,303.44 71.996,301.42C80.118,302.898 88.25,304.278 96.392,305.564ZM139.826,436.21L70.119,432.364L139.826,427.662L139.826,436.21ZM111.952,391.276C111.877,367.207 111.802,343.135 111.728,319.06C114.494,315.823 117.26,312.638 120.026,309.5C126.624,310.38 133.228,311.202 139.837,311.97C142.633,315.674 145.431,319.318 148.229,322.907C148.324,345.395 148.418,367.88 148.513,390.363C145.741,393.756 142.968,397.198 140.195,400.694C133.577,400.97 126.96,401.263 120.343,401.573C117.545,398.197 114.748,394.766 111.952,391.276ZM125.806,388.306C129.889,388.222 133.971,388.14 138.054,388.061C137.97,366.86 137.885,345.656 137.801,324.45C133.722,324.062 129.645,323.658 125.57,323.236C125.649,344.928 125.728,366.619 125.806,388.306ZM153.501,314.053C165.074,315.217 176.661,316.222 188.258,317.079C191.063,320.399 193.869,323.679 196.674,326.921C196.712,336.171 196.75,345.42 196.788,354.669C195.317,355.788 193.848,356.913 192.378,358.042C193.857,359.237 195.337,360.425 196.816,361.606C196.851,370.084 196.886,378.562 196.92,387.04C198.679,390.872 200.437,394.682 202.195,398.471C194.797,398.649 187.4,398.849 180.004,399.07C181.444,395.091 182.884,391.136 184.324,387.203C184.291,379.376 184.257,371.55 184.223,363.723C180.135,363.655 176.048,363.583 171.961,363.507C171.996,371.464 172.031,379.422 172.066,387.379C172.97,391.344 173.874,395.294 174.778,399.23C167.809,399.448 160.841,399.684 153.874,399.94C155.598,395.787 157.322,391.669 159.046,387.584C158.957,367.304 158.868,347.022 158.779,326.738C157.02,322.546 155.26,318.319 153.501,314.053ZM171.909,351.57C175.996,351.716 180.084,351.853 184.173,351.983C184.139,344.155 184.105,336.328 184.072,328.5C179.981,328.247 175.892,327.979 171.804,327.695C171.839,335.654 171.874,343.612 171.909,351.57ZM159.649,418.453C159.826,418.362 160.041,418.316 160.295,418.316L174.565,418.316C177.247,418.316 179.613,418.655 181.663,419.332C183.712,420.009 185.307,420.959 186.445,422.183C187.584,423.407 188.153,424.799 188.153,426.362C188.153,428.705 186.95,430.593 184.548,432.025C182.143,433.457 178.968,434.173 175.021,434.173L168.569,434.173C168.315,434.173 168.189,434.238 168.189,434.368L168.189,445.225C168.189,445.356 168.1,445.466 167.923,445.557C167.745,445.649 167.531,445.694 167.278,445.694L160.295,445.694C160.041,445.694 159.826,445.649 159.649,445.557C159.471,445.466 159.384,445.356 159.384,445.225L159.384,418.785C159.384,418.655 159.471,418.544 159.649,418.453ZM168.189,430.423C168.189,430.554 168.315,430.619 168.569,430.619L173.123,430.619C174.995,430.619 176.501,430.248 177.64,429.506C178.778,428.764 179.348,427.755 179.348,426.479C179.348,425.177 178.778,424.142 177.64,423.374C176.501,422.606 174.995,422.222 173.123,422.222L168.569,422.222C168.315,422.222 168.189,422.287 168.189,422.417L168.189,430.423ZM196.553,418.492C196.73,418.401 196.944,418.355 197.198,418.355L204.182,418.355C204.434,418.355 204.649,418.401 204.827,418.492C205.004,418.584 205.093,418.694 205.093,418.824L205.093,440.311C205.093,440.441 205.218,440.506 205.472,440.506L221.869,440.506C222.121,440.506 222.336,440.552 222.514,440.643C222.691,440.734 222.779,440.845 222.779,440.975L222.779,445.225C222.779,445.356 222.691,445.466 222.514,445.557C222.336,445.649 222.121,445.694 221.869,445.694L197.198,445.694C196.944,445.694 196.73,445.649 196.553,445.557C196.375,445.466 196.287,445.356 196.287,445.225L196.287,418.824C196.287,418.694 196.375,418.584 196.553,418.492ZM227.751,418.492C227.928,418.401 228.142,418.355 228.396,418.355L235.38,418.355C235.633,418.355 235.847,418.401 236.025,418.492C236.202,418.584 236.291,418.694 236.291,418.824L236.291,438.586C236.291,439.628 236.796,440.474 237.809,441.124C238.821,441.776 240.162,442.101 241.832,442.101C243.502,442.101 244.842,441.776 245.855,441.124C246.867,440.474 247.374,439.628 247.374,438.586L247.374,418.824C247.374,418.694 247.461,418.584 247.639,418.492C247.816,418.401 248.031,418.355 248.284,418.355L255.268,418.355C255.521,418.355 255.735,418.401 255.913,418.492C256.09,418.584 256.179,418.694 256.179,418.824L256.179,438.117C256.179,440.487 254.862,442.394 252.232,443.839C249.6,445.284 246.133,446.006 241.832,446.006C237.479,446.006 234,445.284 231.395,443.839C228.788,442.394 227.485,440.487 227.485,438.117L227.485,418.824C227.485,418.694 227.573,418.584 227.751,418.492ZM260.253,397.621C254.3,397.637 248.347,397.667 242.395,397.711C235.951,381.15 229.493,364.402 223.025,347.353C223.069,360.49 223.114,373.626 223.158,386.762C224.914,390.5 226.669,394.221 228.423,397.927C220.883,398.058 213.342,398.211 205.802,398.385C207.53,394.529 209.258,390.695 210.986,386.881C210.915,367.902 210.844,348.923 210.773,329.942C208.44,326.039 206.107,322.105 203.774,318.136C209.585,318.499 215.398,318.826 221.213,319.118C227.26,336.334 233.297,353.245 239.322,369.951C239.287,356.977 239.251,344.002 239.215,331.027C237.457,327.267 235.699,323.492 233.939,319.699C241.934,320.029 249.932,320.292 257.932,320.491C256.189,324.116 254.448,327.747 252.708,331.385C252.747,349.696 252.787,368.008 252.826,386.319C255.303,390.098 257.779,393.864 260.253,397.621ZM262.407,320.567C275.829,320.872 289.255,320.995 302.681,320.938C302.679,326.397 302.677,331.855 302.675,337.314C299.179,335.505 295.682,333.688 292.184,331.861C288.369,331.853 284.555,331.833 280.74,331.801C280.746,339.088 280.752,346.374 280.758,353.661C285.14,353.68 289.523,353.69 293.905,353.693C293.906,357.332 293.906,360.97 293.906,364.608C289.527,364.606 285.147,364.601 280.767,364.591C280.773,371.878 280.779,379.165 280.785,386.452C284.589,386.444 288.392,386.44 292.196,386.438C295.683,384.617 299.171,382.799 302.661,380.981C302.659,386.439 302.657,391.897 302.655,397.356C289.284,397.334 275.912,397.382 262.542,397.499C264.278,393.82 266.015,390.151 267.753,386.488C267.726,368.208 267.699,349.927 267.671,331.646C265.917,327.963 264.163,324.27 262.407,320.567ZM264.111,418.492C264.288,418.401 264.503,418.355 264.757,418.355L271.74,418.355C272.245,418.355 272.625,418.46 272.879,418.668L280.242,425.346C280.394,425.45 280.546,425.45 280.697,425.346L287.909,418.668C288.161,418.46 288.541,418.355 289.047,418.355L296.031,418.355C296.284,418.355 296.498,418.401 296.676,418.492C296.853,418.584 296.942,418.694 296.942,418.824L296.942,445.225C296.942,445.356 296.853,445.466 296.676,445.557C296.498,445.649 296.284,445.694 296.031,445.694L289.047,445.694C288.794,445.694 288.579,445.649 288.402,445.557C288.224,445.466 288.137,445.356 288.137,445.225L288.137,426.791C288.137,426.687 288.086,426.635 287.985,426.635C287.883,426.635 287.782,426.674 287.681,426.752L281.077,432.923C280.823,433.132 280.595,433.235 280.394,433.235C280.191,433.235 279.963,433.132 279.711,432.923L273.107,426.752C273.005,426.674 272.904,426.635 272.803,426.635C272.701,426.635 272.651,426.687 272.651,426.791L272.651,445.225C272.651,445.356 272.562,445.466 272.385,445.557C272.207,445.649 271.993,445.694 271.74,445.694L264.757,445.694C264.503,445.694 264.288,445.649 264.111,445.557C263.933,445.466 263.846,445.356 263.846,445.225L263.846,418.824C263.846,418.694 263.933,418.584 264.111,418.492ZM305.178,418.492C305.354,418.401 305.569,418.355 305.823,418.355L317.817,418.355C322.624,418.355 326.394,418.98 329.127,420.23C331.86,421.48 333.226,423.302 333.226,425.698C333.226,428.38 331.378,430.293 327.685,431.439C327.431,431.517 327.381,431.595 327.533,431.673C329.507,432.324 331.05,433.196 332.163,434.29C333.276,435.383 333.833,436.686 333.833,438.195C333.833,440.591 332.479,442.439 329.772,443.741C327.065,445.043 323.535,445.694 319.183,445.694L305.823,445.694C305.569,445.694 305.354,445.649 305.178,445.557C305,445.466 304.912,445.356 304.912,445.225L304.912,418.824C304.912,418.694 305,418.584 305.178,418.492ZM313.718,441.554C313.718,441.685 313.843,441.749 314.097,441.749L318.5,441.749C320.523,441.749 322.117,441.385 323.282,440.656C324.446,439.927 325.028,438.898 325.028,437.57C325.028,436.217 324.446,435.156 323.282,434.387C322.117,433.62 320.523,433.235 318.5,433.235L314.097,433.235C313.843,433.235 313.718,433.301 313.718,433.431L313.718,441.554ZM313.718,429.72C313.718,429.851 313.843,429.916 314.097,429.916L317.968,429.916C320.043,429.916 321.662,429.59 322.827,428.939C323.99,428.289 324.573,427.364 324.573,426.166C324.573,424.917 323.99,423.954 322.827,423.276C321.662,422.599 320.043,422.261 317.968,422.261L314.097,422.261C313.843,422.261 313.718,422.326 313.718,422.456L313.718,429.72ZM340.247,418.492C340.424,418.401 340.638,418.355 340.892,418.355L347.876,418.355C348.129,418.355 348.343,418.401 348.521,418.492C348.698,418.584 348.787,418.694 348.787,418.824L348.787,445.225C348.787,445.356 348.698,445.466 348.521,445.557C348.343,445.649 348.129,445.694 347.876,445.694L340.892,445.694C340.638,445.694 340.424,445.649 340.247,445.557C340.069,445.466 339.981,445.356 339.981,445.225L339.981,418.824C339.981,418.694 340.069,418.584 340.247,418.492ZM330.266,397.519C332.015,393.869 333.766,390.211 335.517,386.544C335.533,379.193 335.548,371.841 335.564,364.489C331.899,364.51 328.234,364.529 324.57,364.544C324.558,371.861 324.547,379.178 324.535,386.495C326.273,390.16 328.01,393.833 329.746,397.515C322.204,397.445 314.663,397.398 307.121,397.372C308.866,393.736 310.613,390.099 312.36,386.457C312.377,368.231 312.395,350.004 312.412,331.777C310.667,328.149 308.921,324.522 307.173,320.896C318.372,320.799 329.569,320.577 340.763,320.227C343.554,323.088 346.344,325.955 349.133,328.832C349.108,337.724 349.084,346.615 349.06,355.506C348.01,356.632 346.959,357.755 345.909,358.875C346.953,359.973 347.998,361.073 349.042,362.175C349.02,370.325 348.998,378.476 348.976,386.626C350.709,390.343 352.442,394.073 354.173,397.818C346.204,397.694 338.235,397.594 330.266,397.519ZM324.622,331.618C324.61,338.935 324.599,346.252 324.587,353.569C328.254,353.539 331.921,353.503 335.587,353.461C335.602,346.109 335.618,338.757 335.634,331.406C331.963,331.487 328.293,331.558 324.622,331.618ZM361.515,330.613C359.78,326.937 358.044,323.274 356.308,319.622C367.21,319.159 378.106,318.572 388.995,317.857C391.776,320.747 394.556,323.658 397.335,326.592C397.296,335.903 397.257,345.214 397.218,354.525C393.558,357.725 389.898,360.879 386.239,363.993C382.165,364.049 378.091,364.1 374.017,364.148C373.989,371.714 373.961,379.279 373.934,386.845C375.663,390.645 377.392,394.465 379.12,398.306C371.437,398.135 363.753,397.987 356.07,397.861C357.824,394.164 359.578,390.454 361.334,386.728C361.394,368.024 361.455,349.319 361.515,330.613ZM384.191,352.556C384.221,344.911 384.251,337.267 384.281,329.623C380.902,329.792 377.522,329.951 374.141,330.1C374.114,337.667 374.086,345.233 374.058,352.799C377.436,352.723 380.814,352.642 384.191,352.556ZM357.251,418.492C357.427,418.401 357.642,418.355 357.896,418.355L365.715,418.355C366.22,418.355 366.549,418.486 366.701,418.746L378.088,435.188C378.138,435.266 378.226,435.299 378.353,435.286C378.479,435.273 378.543,435.227 378.543,435.149L378.543,418.824C378.543,418.694 378.631,418.584 378.809,418.492C378.986,418.401 379.2,418.355 379.454,418.355L386.362,418.355C386.614,418.355 386.829,418.401 387.007,418.492C387.184,418.584 387.273,418.694 387.273,418.824L387.273,445.225C387.273,445.356 387.184,445.466 387.007,445.557C386.829,445.649 386.614,445.694 386.362,445.694L378.391,445.694C377.885,445.694 377.556,445.564 377.405,445.303L366.094,428.744C366.043,428.666 365.954,428.633 365.828,428.646C365.701,428.66 365.639,428.705 365.639,428.783L365.715,445.225C365.715,445.356 365.626,445.466 365.449,445.557C365.271,445.649 365.056,445.694 364.804,445.694L357.896,445.694C357.642,445.694 357.427,445.649 357.251,445.557C357.073,445.466 356.985,445.356 356.985,445.225L356.985,418.824C356.985,418.694 357.073,418.584 357.251,418.492ZM398.468,419.976C401.074,418.687 404.528,418.043 408.83,418.043C413.131,418.043 416.611,418.687 419.268,419.976C421.924,421.265 423.253,422.99 423.253,425.151L423.253,426.674C423.253,426.805 423.164,426.915 422.987,427.006C422.809,427.098 422.595,427.143 422.342,427.143L415.358,427.143C415.104,427.143 414.89,427.098 414.713,427.006C414.535,426.915 414.447,426.805 414.447,426.674L414.447,425.073C414.447,424.135 413.928,423.381 412.891,422.808C411.853,422.235 410.5,421.948 408.83,421.948C407.16,421.948 405.819,422.235 404.807,422.808C403.794,423.381 403.289,424.135 403.289,425.073L403.289,438.976C403.289,439.914 403.794,440.669 404.807,441.242C405.819,441.815 407.16,442.101 408.83,442.101C410.5,442.101 411.853,441.815 412.891,441.242C413.928,440.669 414.447,439.914 414.447,438.976L414.447,435.227C414.447,435.097 414.32,435.032 414.068,435.032L409.437,435.032C409.184,435.032 408.969,434.987 408.792,434.895C408.614,434.804 408.526,434.694 408.526,434.563L408.526,431.712C408.526,431.582 408.614,431.472 408.792,431.38C408.969,431.289 409.184,431.243 409.437,431.243L422.342,431.243C422.595,431.243 422.809,431.289 422.987,431.38C423.164,431.472 423.253,431.582 423.253,431.712L423.253,438.937C423.253,441.073 421.924,442.784 419.268,444.073C416.611,445.362 413.131,446.006 408.83,446.006C404.528,446.006 401.074,445.362 398.468,444.073C395.861,442.784 394.559,441.073 394.559,438.937L394.559,425.112C394.559,422.977 395.861,421.265 398.468,419.976ZM401.541,389.646C401.633,368.359 401.726,347.07 401.819,325.779C404.623,322.434 407.427,319.046 410.23,315.61C416.855,315.03 423.476,314.399 430.092,313.717C432.863,316.719 435.634,319.757 438.405,322.834C438.31,345.352 438.216,367.868 438.122,390.38C435.321,393.652 432.52,396.878 429.719,400.063C423.101,399.814 416.481,399.583 409.861,399.368C407.088,396.088 404.315,392.848 401.541,389.646ZM425.116,387.649C425.205,367.246 425.294,346.841 425.383,326.433C421.726,326.726 418.068,327.006 414.409,327.273C414.321,347.341 414.232,367.406 414.144,387.47C417.802,387.527 421.459,387.587 425.116,387.649ZM453.062,381.802C453.054,383.972 453.046,386.142 453.038,388.312C457.121,388.396 461.202,388.483 465.283,388.572C465.307,380.949 465.332,373.326 465.356,365.703C457.811,362.329 450.266,359.101 442.719,355.989C442.764,344.559 442.809,333.129 442.854,321.698C445.65,318.011 448.444,314.264 451.237,310.452C457.839,309.614 464.436,308.721 471.027,307.769C473.792,310.965 476.557,314.213 479.322,317.516C479.314,320.719 479.306,323.921 479.298,327.124C475.828,327.5 472.357,327.863 468.885,328.215C468.891,325.976 468.898,323.738 468.905,321.499C464.408,322.016 459.909,322.511 455.408,322.985C455.377,331.702 455.346,340.419 455.315,349.135C463.285,352.185 471.252,355.359 479.218,358.692C479.191,369.672 479.163,380.651 479.136,391.629C476.343,395.208 473.548,398.723 470.752,402.18C464.135,401.848 457.519,401.534 450.901,401.236C448.128,397.653 445.355,394.128 442.583,390.655C442.594,387.676 442.606,384.697 442.618,381.717C446.1,381.745 449.581,381.773 453.062,381.802ZM442.602,436.21L442.602,427.662L512.309,432.364L442.602,436.21ZM490.21,403.204C491.96,398.615 493.708,393.972 495.455,389.275C495.492,365.573 495.567,318.163 495.567,318.163C492.969,318.515 490.371,318.859 487.771,319.195C486.712,321.661 485.653,324.11 484.593,326.542C484.608,319.6 484.624,312.659 484.639,305.717C495.876,303.952 507.094,302.01 518.292,299.875L518.292,322.371C517.24,320.015 516.189,317.676 515.138,315.355C512.545,315.748 509.951,316.133 507.356,316.509C507.336,340.865 507.317,365.219 507.297,389.573C509.132,394.491 510.968,399.471 512.806,404.518C505.275,404.058 497.743,403.62 490.21,403.204Z"/>
        <path d="M398.468,419.976C401.074,418.687 404.528,418.043 408.83,418.043C413.131,418.043 416.611,418.687 419.268,419.976C421.924,421.265 423.253,422.99 423.253,425.151L423.253,426.674C423.253,426.805 423.164,426.915 422.987,427.006C422.809,427.098 422.595,427.143 422.342,427.143L415.358,427.143C415.104,427.143 414.89,427.098 414.713,427.006C414.535,426.915 414.447,426.805 414.447,426.674L414.447,425.073C414.447,424.135 413.928,423.381 412.891,422.808C411.853,422.235 410.5,421.948 408.83,421.948C407.16,421.948 405.819,422.235 404.807,422.808C403.794,423.381 403.289,424.135 403.289,425.073L403.289,438.976C403.289,439.914 403.794,440.669 404.807,441.242C405.819,441.815 407.16,442.101 408.83,442.101C410.5,442.101 411.853,441.815 412.891,441.242C413.928,440.669 414.447,439.914 414.447,438.976L414.447,435.227C414.447,435.097 414.32,435.032 414.068,435.032L409.437,435.032C409.184,435.032 408.969,434.987 408.792,434.895C408.614,434.804 408.526,434.694 408.526,434.563L408.526,431.712C408.526,431.582 408.614,431.472 408.792,431.38C408.969,431.289 409.184,431.243 409.437,431.243L422.342,431.243C422.595,431.243 422.809,431.289 422.987,431.38C423.164,431.472 423.253,431.582 423.253,431.712L423.253,438.937C423.253,441.073 421.924,442.784 419.268,444.073C416.611,445.362 413.131,446.006 408.83,446.006C404.528,446.006 401.074,445.362 398.468,444.073C395.861,442.784 394.559,441.073 394.559,438.937L394.559,425.112C394.559,422.977 395.861,421.265 398.468,419.976ZM340.247,418.492C340.424,418.401 340.638,418.355 340.892,418.355L347.876,418.355C348.129,418.355 348.343,418.401 348.521,418.492C348.698,418.584 348.787,418.694 348.787,418.824L348.787,445.225C348.787,445.356 348.698,445.466 348.521,445.557C348.343,445.649 348.129,445.694 347.876,445.694L340.892,445.694C340.638,445.694 340.424,445.649 340.247,445.557C340.069,445.466 339.981,445.356 339.981,445.225L339.981,418.824C339.981,418.694 340.069,418.584 340.247,418.492ZM357.251,418.492C357.427,418.401 357.642,418.355 357.896,418.355L365.715,418.355C366.22,418.355 366.549,418.486 366.701,418.746L378.088,435.188C378.138,435.266 378.226,435.299 378.353,435.286C378.479,435.273 378.543,435.227 378.543,435.149L378.543,418.824C378.543,418.694 378.631,418.584 378.809,418.492C378.986,418.401 379.2,418.355 379.454,418.355L386.362,418.355C386.614,418.355 386.829,418.401 387.007,418.492C387.184,418.584 387.273,418.694 387.273,418.824L387.273,445.225C387.273,445.356 387.184,445.466 387.007,445.557C386.829,445.649 386.614,445.694 386.362,445.694L378.391,445.694C377.885,445.694 377.556,445.564 377.405,445.303L366.094,428.744C366.043,428.666 365.954,428.633 365.828,428.646C365.701,428.66 365.639,428.705 365.639,428.783L365.715,445.225C365.715,445.356 365.626,445.466 365.449,445.557C365.271,445.649 365.056,445.694 364.804,445.694L357.896,445.694C357.642,445.694 357.427,445.649 357.251,445.557C357.073,445.466 356.985,445.356 356.985,445.225L356.985,418.824C356.985,418.694 357.073,418.584 357.251,418.492ZM382.273,438.438L382.091,438.719L380.517,439.818L379.837,440L380.311,440.694L382.273,440.694L382.273,438.438ZM362.834,421.943L362.506,421.47C362.605,421.628 362.713,421.787 362.834,421.943ZM361.985,425.373L362.082,425.221L363.664,424.114L364.231,423.962L363.812,423.355L361.985,423.355L361.985,425.373ZM381.297,442.137L381.612,442.599C381.517,442.445 381.413,442.289 381.297,442.137ZM264.111,418.492C264.288,418.401 264.503,418.355 264.757,418.355L271.74,418.355C272.245,418.355 272.625,418.46 272.879,418.668L280.242,425.346C280.394,425.45 280.546,425.45 280.697,425.346L287.909,418.668C288.161,418.46 288.541,418.355 289.047,418.355L296.031,418.355C296.284,418.355 296.498,418.401 296.676,418.492C296.853,418.584 296.942,418.694 296.942,418.824L296.942,445.225C296.942,445.356 296.853,445.466 296.676,445.557C296.498,445.649 296.284,445.694 296.031,445.694L289.047,445.694C288.794,445.694 288.579,445.649 288.402,445.557C288.224,445.466 288.137,445.356 288.137,445.225L288.137,426.791C288.137,426.687 288.086,426.635 287.985,426.635C287.883,426.635 287.782,426.674 287.681,426.752L281.077,432.923C280.823,433.132 280.595,433.235 280.394,433.235C280.191,433.235 279.963,433.132 279.711,432.923L273.107,426.752C273.005,426.674 272.904,426.635 272.803,426.635C272.701,426.635 272.651,426.687 272.651,426.791L272.651,445.225C272.651,445.356 272.562,445.466 272.385,445.557C272.207,445.649 271.993,445.694 271.74,445.694L264.757,445.694C264.503,445.694 264.288,445.649 264.111,445.557C263.933,445.466 263.846,445.356 263.846,445.225L263.846,418.824C263.846,418.694 263.933,418.584 264.111,418.492ZM291.794,423.355L291.942,423.58L291.942,423.355L291.794,423.355ZM268.991,423.355L268.846,423.355L268.846,423.578L268.991,423.355ZM196.553,418.492C196.73,418.401 196.944,418.355 197.198,418.355L204.182,418.355C204.434,418.355 204.649,418.401 204.827,418.492C205.004,418.584 205.093,418.694 205.093,418.824L205.093,440.311C205.093,440.441 205.218,440.506 205.472,440.506L221.869,440.506C222.121,440.506 222.336,440.552 222.514,440.643C222.691,440.734 222.779,440.845 222.779,440.975L222.779,445.225C222.779,445.356 222.691,445.466 222.514,445.557C222.336,445.649 222.121,445.694 221.869,445.694L197.198,445.694C196.944,445.694 196.73,445.649 196.553,445.557C196.375,445.466 196.287,445.356 196.287,445.225L196.287,418.824C196.287,418.694 196.375,418.584 196.553,418.492ZM227.751,418.492C227.928,418.401 228.142,418.355 228.396,418.355L235.38,418.355C235.633,418.355 235.847,418.401 236.025,418.492C236.202,418.584 236.291,418.694 236.291,418.824L236.291,438.586C236.291,439.628 236.796,440.474 237.809,441.124C238.821,441.776 240.162,442.101 241.832,442.101C243.502,442.101 244.842,441.776 245.855,441.124C246.867,440.474 247.374,439.628 247.374,438.586L247.374,418.824C247.374,418.694 247.461,418.584 247.639,418.492C247.816,418.401 248.031,418.355 248.284,418.355L255.268,418.355C255.521,418.355 255.735,418.401 255.913,418.492C256.09,418.584 256.179,418.694 256.179,418.824L256.179,438.117C256.179,440.487 254.862,442.394 252.232,443.839C249.6,445.284 246.133,446.006 241.832,446.006C237.479,446.006 234,445.284 231.395,443.839C228.788,442.394 227.485,440.487 227.485,438.117L227.485,418.824C227.485,418.694 227.573,418.584 227.751,418.492ZM305.178,418.492C305.354,418.401 305.569,418.355 305.823,418.355L317.817,418.355C322.624,418.355 326.394,418.98 329.127,420.23C331.86,421.48 333.226,423.302 333.226,425.698C333.226,428.38 331.378,430.293 327.685,431.439C327.431,431.517 327.381,431.595 327.533,431.673C329.507,432.324 331.05,433.196 332.163,434.29C333.276,435.383 333.833,436.686 333.833,438.195C333.833,440.591 332.479,442.439 329.772,443.741C327.065,445.043 323.535,445.694 319.183,445.694L305.823,445.694C305.569,445.694 305.354,445.649 305.178,445.557C305,445.466 304.912,445.356 304.912,445.225L304.912,418.824C304.912,418.694 305,418.584 305.178,418.492ZM313.718,429.72C313.718,429.851 313.843,429.916 314.097,429.916L317.968,429.916C320.043,429.916 321.662,429.59 322.827,428.939C323.99,428.289 324.573,427.364 324.573,426.166C324.573,424.917 323.99,423.954 322.827,423.276C321.662,422.599 320.043,422.261 317.968,422.261L314.097,422.261C313.843,422.261 313.718,422.326 313.718,422.456L313.718,429.72ZM313.718,441.554C313.718,441.685 313.843,441.749 314.097,441.749L318.5,441.749C320.523,441.749 322.117,441.385 323.282,440.656C324.446,439.927 325.028,438.898 325.028,437.57C325.028,436.217 324.446,435.156 323.282,434.387C322.117,433.62 320.523,433.235 318.5,433.235L314.097,433.235C313.843,433.235 313.718,433.301 313.718,433.431L313.718,441.554ZM159.649,418.453C159.826,418.362 160.041,418.316 160.295,418.316L174.565,418.316C177.247,418.316 179.613,418.655 181.663,419.332C183.712,420.009 185.307,420.959 186.445,422.183C187.584,423.407 188.153,424.799 188.153,426.362C188.153,428.705 186.95,430.593 184.548,432.025C182.143,433.457 178.968,434.173 175.021,434.173L168.569,434.173C168.315,434.173 168.189,434.238 168.189,434.368L168.189,445.225C168.189,445.356 168.1,445.466 167.923,445.557C167.745,445.649 167.531,445.694 167.278,445.694L160.295,445.694C160.041,445.694 159.826,445.649 159.649,445.557C159.471,445.466 159.384,445.356 159.384,445.225L159.384,418.785C159.384,418.655 159.471,418.544 159.649,418.453ZM168.189,430.423C168.189,430.554 168.315,430.619 168.569,430.619L173.123,430.619C174.995,430.619 176.501,430.248 177.64,429.506C178.778,428.764 179.348,427.755 179.348,426.479C179.348,425.177 178.778,424.142 177.64,423.374C176.501,422.606 174.995,422.222 173.123,422.222L168.569,422.222C168.315,422.222 168.189,422.287 168.189,422.417L168.189,430.423ZM96.392,305.564C98.605,309.623 100.819,313.621 103.035,317.562L103.076,334.02C98.611,333.604 94.148,333.169 89.687,332.717L89.661,318.596C85.741,318.075 81.822,317.536 77.905,316.978L77.98,389.489C81.915,389.389 85.851,389.291 89.787,389.195L89.762,375.076C94.234,375.108 98.706,375.137 103.18,375.163L103.222,391.619C101.017,395.34 98.811,399.113 96.604,402.942C88.421,403.383 80.239,403.85 72.059,404.344C69.273,401.849 66.489,399.304 63.706,396.707L63.706,307.597C66.47,305.498 69.233,303.44 71.996,301.42C80.118,302.898 88.25,304.278 96.392,305.564ZM93.182,310.116C86.522,309.049 79.868,307.919 73.221,306.723C71.716,307.832 70.211,308.952 68.706,310.085L68.706,394.529C70.419,396.115 72.132,397.681 73.847,399.228C80.44,398.833 87.035,398.456 93.63,398.096C95.16,395.457 96.689,392.844 98.218,390.256L98.193,380.133L94.771,380.111L94.796,394.075L89.909,394.194C85.974,394.29 82.04,394.388 78.106,394.487L72.985,394.617L72.899,311.215L78.61,312.028C82.512,312.584 86.415,313.121 90.32,313.64L94.654,314.216L94.679,328.191C95.806,328.303 96.934,328.413 98.062,328.522L98.038,318.875C96.418,315.987 94.8,313.068 93.182,310.116ZM401.541,389.646L401.819,325.779C404.623,322.434 407.427,319.046 410.23,315.61C416.855,315.03 423.476,314.399 430.092,313.717C432.863,316.719 435.634,319.757 438.405,322.834L438.122,390.38C435.321,393.652 432.52,396.878 429.719,400.063C423.101,399.814 416.481,399.583 409.861,399.368C407.088,396.088 404.315,392.848 401.541,389.646ZM429.496,392.724L425.031,392.648C421.376,392.586 417.721,392.527 414.065,392.469L410.514,392.413C411.09,393.088 411.666,393.765 412.242,394.443C417.338,394.611 422.434,394.789 427.529,394.978C428.185,394.229 428.84,393.478 429.496,392.724ZM409.129,390.794L409.144,387.448L409.409,327.251L409.422,324.466C408.551,325.517 407.681,326.563 406.811,327.605L406.549,387.793C407.409,388.79 408.269,389.79 409.129,390.794ZM430.404,321.452L430.383,326.455L430.116,387.671L430.097,392.032C431.108,390.868 432.118,389.697 433.129,388.521L433.396,324.747C432.399,323.644 431.402,322.546 430.404,321.452ZM411.041,322.506L414.045,322.287C417.692,322.02 421.338,321.741 424.984,321.449L430.033,321.045C429.392,320.343 428.751,319.643 428.11,318.945C422.998,319.463 417.884,319.949 412.768,320.405C412.192,321.108 411.617,321.808 411.041,322.506ZM425.116,387.649L425.383,326.433C421.726,326.726 418.068,327.006 414.409,327.273L414.144,387.47C417.802,387.527 421.459,387.587 425.116,387.649ZM453.062,381.802L453.038,388.312C457.121,388.396 461.202,388.483 465.283,388.572L465.356,365.703C457.811,362.329 450.266,359.101 442.719,355.989L442.854,321.698C445.65,318.011 448.444,314.264 451.237,310.452C457.839,309.614 464.436,308.721 471.027,307.769C473.792,310.965 476.557,314.213 479.322,317.516L479.298,327.124C475.828,327.5 472.357,327.863 468.885,328.215L468.905,321.499C464.408,322.016 459.909,322.511 455.408,322.985L455.315,349.135C463.285,352.185 471.252,355.359 479.218,358.692L479.136,391.629C476.343,395.208 473.548,398.723 470.752,402.18C464.135,401.848 457.519,401.534 450.901,401.236C448.128,397.653 445.355,394.128 442.583,390.655L442.618,381.717L453.062,381.802ZM451.032,393.271C451.833,394.292 452.634,395.316 453.435,396.346C458.443,396.574 463.45,396.812 468.457,397.059C470.352,394.701 472.247,392.315 474.14,389.9L474.21,362.024C467.317,359.176 460.424,356.444 453.528,353.805L450.303,352.571L450.315,349.118L450.408,322.967L450.419,319.963C449.562,321.109 448.705,322.25 447.848,323.385L447.732,352.654C454.288,355.386 460.843,358.207 467.397,361.138L470.366,362.466L470.356,365.718L470.283,388.588L470.267,393.683L465.174,393.571C461.095,393.482 457.015,393.395 452.935,393.311L451.032,393.271ZM451.616,318.357L454.885,318.013C459.37,317.54 463.853,317.047 468.334,316.532L471.63,316.153C470.762,315.132 469.894,314.116 469.027,313.106C464.02,313.817 459.01,314.495 453.997,315.14C453.204,316.217 452.41,317.289 451.616,318.357ZM473.913,318.85L473.905,321.514L473.901,322.671L474.309,322.628L474.317,319.33L473.913,318.85ZM448.034,389.475L448.044,386.761L447.598,386.758L447.59,388.915L448.034,389.475ZM490.21,403.204C491.96,398.615 493.708,393.972 495.455,389.275L495.567,318.163C492.969,318.515 490.371,318.859 487.771,319.195C486.712,321.661 485.653,324.11 484.593,326.542L484.639,305.717C495.876,303.952 507.094,302.01 518.292,299.875L518.292,322.371C517.24,320.015 516.189,317.676 515.138,315.355C512.545,315.748 509.951,316.133 507.356,316.509L507.297,389.573C509.132,394.491 510.968,399.471 512.806,404.518C505.275,404.058 497.743,403.62 490.21,403.204ZM513.292,310.577L513.292,305.9C505.414,307.354 497.527,308.714 489.63,309.986L489.621,313.912C491.38,313.681 493.138,313.446 494.896,313.208L500.576,312.438L500.453,390.178L500.141,391.017C499.196,393.559 498.251,396.085 497.305,398.594C500.032,398.75 502.759,398.908 505.485,399.069C504.527,396.469 503.57,393.886 502.613,391.32L502.297,390.473L502.297,389.569L502.356,316.505L502.359,312.182L506.638,311.561C508.857,311.239 511.075,310.911 513.292,310.577ZM111.952,391.276L111.728,319.06C114.494,315.823 117.26,312.638 120.026,309.5C126.624,310.38 133.228,311.202 139.837,311.97C142.633,315.674 145.431,319.318 148.229,322.907L148.513,390.363C145.741,393.756 142.968,397.198 140.195,400.694C133.577,400.97 126.96,401.263 120.343,401.573C117.545,398.197 114.748,394.766 111.952,391.276ZM139.919,393.026L138.151,393.06C134.07,393.139 129.99,393.221 125.91,393.305L120.825,393.41L120.806,388.324L120.57,323.254L120.55,317.689L126.085,318.262C130.146,318.683 134.209,319.086 138.274,319.472L139.336,319.573C138.603,318.616 137.87,317.654 137.137,316.688C132.095,316.093 127.055,315.467 122.019,314.807C120.257,316.819 118.495,318.85 116.733,320.902L116.946,389.511C118.832,391.854 120.719,394.171 122.606,396.462C127.638,396.23 132.671,396.007 137.703,395.794C138.442,394.868 139.181,393.945 139.919,393.026ZM142.799,324.069L143.059,389.141L143.505,388.592L143.237,324.633L142.799,324.069ZM125.806,388.306C129.889,388.222 133.971,388.14 138.054,388.061L137.801,324.45C133.722,324.062 129.645,323.658 125.57,323.236L125.806,388.306ZM330.266,397.519C332.015,393.869 333.766,390.211 335.517,386.544L335.564,364.489C331.899,364.51 328.234,364.529 324.57,364.544L324.535,386.495C326.273,390.16 328.01,393.833 329.746,397.515C322.204,397.445 314.663,397.398 307.121,397.372L312.36,386.457L312.412,331.777C310.667,328.149 308.921,324.522 307.173,320.896C318.372,320.799 329.569,320.577 340.763,320.227C343.554,323.088 346.344,325.955 349.133,328.832L349.06,355.506C348.01,356.632 346.959,357.755 345.909,358.875C346.953,359.973 347.998,361.073 349.042,362.175L348.976,386.626C350.709,390.343 352.442,394.073 354.173,397.818C346.204,397.694 338.235,397.594 330.266,397.519ZM340.642,327.268L340.579,357.25L342.261,355.456L344.066,353.529L344.127,330.853C342.966,329.656 341.804,328.461 340.642,327.268ZM339.569,359.466L339.032,358.901L339.485,358.418L335.643,358.461C331.972,358.502 328.3,358.538 324.628,358.569L319.579,358.611L319.587,353.561L319.622,331.61L319.629,326.699L324.54,326.619C328.201,326.559 331.862,326.488 335.522,326.407L339.713,326.313L338.718,325.292C330.843,325.526 322.966,325.697 315.088,325.807L316.918,329.61L317.413,330.64L317.359,387.597L316.868,388.62L315.051,392.407C317.308,392.419 319.566,392.433 321.823,392.45L320.017,388.637L319.533,387.616L319.535,386.487L319.57,364.536L319.578,359.565L324.548,359.544C328.211,359.529 331.873,359.51 335.535,359.489L339.569,359.466ZM340.572,360.52L340.564,364.5L340.517,386.555L340.515,387.682L340.029,388.699L338.164,392.601C340.873,392.632 343.581,392.666 346.29,392.702C345.675,391.38 345.06,390.059 344.444,388.739L343.973,387.728L344.037,364.163L342.286,362.322L340.572,360.52ZM324.622,331.618L324.587,353.569C328.254,353.539 331.921,353.503 335.587,353.461L335.634,331.406C331.963,331.487 328.293,331.558 324.622,331.618ZM361.515,330.613C359.78,326.937 358.044,323.274 356.308,319.622C367.21,319.159 378.106,318.572 388.995,317.857C391.776,320.747 394.556,323.658 397.335,326.592L397.218,354.525C393.558,357.725 389.898,360.879 386.239,363.993C382.165,364.049 378.091,364.1 374.017,364.148L373.934,386.845C375.663,390.645 377.392,394.465 379.12,398.306C371.437,398.135 363.753,397.987 356.07,397.861C357.824,394.164 359.578,390.454 361.334,386.728L361.515,330.613ZM389.298,325.397L389.281,329.642L389.191,352.575L389.182,354.884C390.197,354.007 391.212,353.127 392.227,352.243L392.327,328.577C391.317,327.514 390.308,326.454 389.298,325.397ZM386.134,357.508L384.319,357.554C380.937,357.64 377.554,357.721 374.171,357.797L369.039,357.913L369.159,325.316L373.92,325.105C377.291,324.956 380.662,324.797 384.031,324.629L388.356,324.412L387,322.997C379.354,323.486 371.704,323.912 364.051,324.278C364.713,325.676 365.375,327.077 366.037,328.479L366.519,329.5L366.515,330.629L366.334,386.744L366.33,387.854L365.857,388.859C365.206,390.24 364.556,391.619 363.905,392.996C366.37,393.041 368.835,393.089 371.3,393.139C370.661,391.728 370.022,390.321 369.383,388.916L368.93,387.92L369.035,359.205L373.958,359.148C377.429,359.108 380.899,359.064 384.368,359.018C384.957,358.516 385.545,358.012 386.134,357.508ZM384.191,352.556L384.281,329.623C380.902,329.792 377.522,329.951 374.141,330.1L374.058,352.799C377.436,352.723 380.814,352.642 384.191,352.556ZM260.253,397.621C254.3,397.637 248.347,397.667 242.395,397.711C235.951,381.15 229.493,364.402 223.025,347.353L223.158,386.762C224.914,390.5 226.669,394.221 228.423,397.927C220.883,398.058 213.342,398.211 205.802,398.385C207.53,394.529 209.258,390.695 210.986,386.881L210.773,329.942C208.44,326.039 206.107,322.105 203.774,318.136C209.585,318.499 215.398,318.826 221.213,319.118C227.26,336.334 233.297,353.245 239.322,369.951L239.215,331.027C237.457,327.267 235.699,323.492 233.939,319.699C241.934,320.029 249.932,320.292 257.932,320.491C256.189,324.116 254.448,327.747 252.708,331.385L252.826,386.319C255.303,390.098 257.779,393.864 260.253,397.621ZM217.949,324.908L217.608,323.939C216.026,323.856 214.444,323.771 212.862,323.682C213.596,324.917 214.331,326.149 215.065,327.377L215.767,328.553L215.99,387.952L215.54,388.945C214.897,390.364 214.254,391.786 213.611,393.211C215.94,393.162 218.27,393.115 220.6,393.07C219.944,391.678 219.288,390.284 218.632,388.888L218.162,387.886L218.025,347.37L217.949,324.908ZM244.375,389.002L245.806,392.687C247.539,392.676 249.272,392.666 251.004,392.657L248.644,389.06L247.83,387.816L247.705,330.255L248.197,329.227L250.088,325.278C247.366,325.196 244.645,325.106 241.924,325.009L243.745,328.909L244.212,329.909L244.215,331.013L244.322,369.937L244.375,389.002ZM153.501,314.053C165.074,315.217 176.661,316.222 188.258,317.079C191.063,320.399 193.869,323.679 196.674,326.921L196.788,354.669C195.317,355.788 193.848,356.913 192.378,358.042C193.857,359.237 195.337,360.425 196.816,361.606L196.92,387.04C198.679,390.872 200.437,394.682 202.195,398.471C194.797,398.649 187.4,398.849 180.004,399.07C181.444,395.091 182.884,391.136 184.324,387.203L184.223,363.723C180.135,363.655 176.048,363.583 171.961,363.507L172.066,387.379C172.97,391.344 173.874,395.294 174.778,399.23C167.809,399.448 160.841,399.684 153.874,399.94C155.598,395.787 157.322,391.669 159.046,387.584L158.779,326.738C157.02,322.546 155.26,318.319 153.501,314.053ZM189.06,325.739L189.072,328.479L189.173,351.961L189.182,354.192L189.331,354.078C190.146,353.451 190.962,352.826 191.777,352.203L191.682,328.79C190.808,327.777 189.934,326.76 189.06,325.739ZM185.284,358.74L184.299,357.945L185.493,357.027L184.014,356.98C179.919,356.85 175.824,356.713 171.731,356.567L166.93,356.396L166.909,351.592L166.78,322.335L172.15,322.707C176.225,322.99 180.303,323.258 184.381,323.51L187.311,323.691C186.806,323.098 186.301,322.504 185.796,321.909C177.629,321.293 169.467,320.603 161.312,319.837C162.004,321.498 162.697,323.153 163.39,324.803L163.775,325.721L164.051,388.586L163.653,389.529C162.932,391.235 162.212,392.947 161.492,394.665C163.844,394.584 166.195,394.504 168.547,394.427C168.095,392.452 167.643,390.473 167.191,388.49L167.068,387.952L166.939,358.412L172.055,358.508C176.138,358.584 180.222,358.656 184.306,358.724L185.284,358.74ZM189.215,361.915L189.223,363.701L189.324,387.181L189.328,388.079L189.019,388.922C188.418,390.564 187.817,392.21 187.216,393.859C189.631,393.792 192.047,393.726 194.463,393.663C193.767,392.154 193.072,390.642 192.376,389.125L191.925,388.142L191.92,387.061L191.826,364.016C190.963,363.324 190.1,362.629 189.236,361.932L189.215,361.915ZM171.909,351.57C175.996,351.716 180.084,351.853 184.173,351.983L184.072,328.5C179.981,328.247 175.892,327.979 171.804,327.695L171.909,351.57ZM262.407,320.567C275.829,320.872 289.255,320.995 302.681,320.938L302.675,337.314C299.179,335.505 295.682,333.688 292.184,331.861C288.369,331.853 284.555,331.833 280.74,331.801L280.758,353.661C285.14,353.68 289.523,353.69 293.905,353.693L293.906,364.608C289.527,364.606 285.147,364.601 280.767,364.591L280.785,386.452C284.589,386.444 288.392,386.44 292.196,386.438C295.683,384.617 299.171,382.799 302.661,380.981L302.655,397.356C289.284,397.334 275.912,397.382 262.542,397.499C264.278,393.82 266.015,390.151 267.753,386.488L267.671,331.646C265.917,327.963 264.163,324.27 262.407,320.567ZM270.392,325.728L272.186,329.496L272.67,330.512L272.671,331.638L272.753,386.481L272.755,387.611L272.27,388.632L270.466,392.438C279.529,392.377 288.593,392.348 297.657,392.351L297.658,389.227L294.511,390.87L293.424,391.437L292.199,391.438C288.397,391.44 284.596,391.444 280.795,391.452L275.789,391.462L275.785,386.456L275.767,364.596L275.763,359.581L280.778,359.592C283.487,359.597 286.196,359.602 288.906,359.604L288.906,358.687C286.183,358.681 283.46,358.673 280.737,358.661L275.762,358.64L275.758,353.665L275.74,331.805L275.736,326.759L280.782,326.801C284.586,326.833 288.391,326.853 292.195,326.861L293.416,326.864L294.499,327.429C295.559,327.983 296.618,328.535 297.678,329.087L297.679,325.951C288.583,325.959 279.487,325.885 270.392,325.728ZM139.826,436.21L70.119,432.364L139.826,427.662L139.826,436.21ZM442.602,436.21L442.602,427.662L512.309,432.364L442.602,436.21Z"/>
    </g>
</svg>
